# xmcd
#
# Track frame offsets: 
#        150
#        26907
#        47585
#        55049
#        76979
#        92899
#        106451
#        129185
#        132322
#        204894
#        219666
#        238000
#
# Disc length: 3560 seconds
#
# Revision: 2
# Processed by: cddbd v1.5.2PL0 Copyright (c) Steve Scherf et al.
# Submitted via: ExactAudioCopy v1.3
#
DISCID=a00de60c
DTITLE=Steamhammer - MK II
DYEAR=1969
DGENRE=Progressive Rock
TTITLE0=Supposed To Be Free
TTITLE1=Johnny Carl Morton
TTITLE2=Sunset Chase
TTITLE3=Contemporary Chick Con Song
TTITLE4=Turn Around
TTITLE5=6-8 For Amiran
TTITLE6=Passing Through
TTITLE7=Down Along The Grove
TTITLE8=Another Travelling Time
TTITLE9=Fran And Dee Take A Ride
TTITLE10=Autumn Song (single a-side)
TTITLE11=Blues For Passing People (single b-side)
EXTD=
EXTT0=
EXTT1=
EXTT2=
EXTT3=
EXTT4=
EXTT5=
EXTT6=
EXTT7=
EXTT8=
EXTT9=
EXTT10=
EXTT11=
PLAYORDER=
